<svg width="16" height="16" viewBox="0 0 16 16" fill="none" xmlns="http://www.w3.org/2000/svg">
<path d="M12.6667 6.77997C12.667 6.87957 12.645 6.97798 12.6024 7.06796C12.5597 7.15795 12.4974 7.23723 12.42 7.29997L8.42002 10.52C8.30073 10.618 8.1511 10.6716 7.99669 10.6716C7.84227 10.6716 7.69264 10.618 7.57335 10.52L3.57335 7.18664C3.43721 7.07348 3.35159 6.91087 3.33534 6.73459C3.31909 6.5583 3.37353 6.38278 3.48669 6.24664C3.59985 6.1105 3.76245 6.02488 3.93874 6.00863C4.11502 5.99237 4.29054 6.04681 4.42669 6.15997L8.00002 9.13997L11.5734 6.25997C11.6712 6.17845 11.7904 6.12667 11.9167 6.11075C12.0431 6.09483 12.1714 6.11544 12.2864 6.17014C12.4014 6.22485 12.4984 6.31135 12.5658 6.41943C12.6332 6.5275 12.6682 6.65262 12.6667 6.77997Z" fill="#1F1C4E"/>
</svg>
